<svg width="44" height="44" viewBox="0 0 44 44" fill="none" xmlns="http://www.w3.org/2000/svg">
<path d="M15.7144 31.4284C24.3931 31.4284 31.4287 24.3929 31.4287 15.7141C31.4287 14.7306 31.3383 13.7681 31.1654 12.8345C30.2319 12.6617 29.2694 12.5713 28.2858 12.5713C19.6071 12.5713 12.5715 19.6068 12.5715 28.2856C12.5715 29.2692 12.6619 30.2317 12.8348 31.1652C13.7683 31.3381 14.7308 31.4284 15.7144 31.4284Z" fill="white"/>
<path fill-rule="evenodd" clip-rule="evenodd" d="M12.8347 31.1653C5.53118 29.8127 0 23.4095 0 15.7143C0 7.03553 7.03553 0 15.7143 0C23.4095 0 29.8128 5.53118 31.1653 12.8347C30.2318 12.6618 29.2693 12.5714 28.2857 12.5714C19.607 12.5714 12.5714 19.607 12.5714 28.2857C12.5714 29.2693 12.6618 30.2318 12.8347 31.1653Z" fill="#CDD0D8"/>
<path fill-rule="evenodd" clip-rule="evenodd" d="M15.7143 31.4284C24.3931 31.4284 31.4286 24.3928 31.4286 15.7141C31.4286 14.7305 31.3382 13.768 31.1654 12.8345C38.4689 14.187 44 20.5903 44 28.2855C44 36.9643 36.9645 43.9998 28.2858 43.9998C20.5906 43.9998 14.1873 38.4686 12.8347 31.1651C13.7682 31.338 14.7307 31.4284 15.7143 31.4284Z" fill="#CDD0D8"/>
</svg>
