<svg width="39" height="44" viewBox="0 0 39 44" fill="none" xmlns="http://www.w3.org/2000/svg">
<path d="M33.8807 21.9999C30.3263 25.9712 25.1609 28.4705 19.4118 28.4705C13.6627 28.4705 8.4973 25.9712 4.94287 21.9999C8.4973 18.0286 13.6627 15.5293 19.4118 15.5293C25.1609 15.5293 30.3263 18.0286 33.8807 21.9999Z" fill="white"/>
<path fill-rule="evenodd" clip-rule="evenodd" d="M0 34.9411C0 24.2202 8.69094 15.5293 19.4118 15.5293C13.6626 15.5293 8.4973 18.0286 4.94288 21.9999C8.4973 25.9712 13.6627 28.4705 19.4118 28.4705C25.1609 28.4705 30.3263 25.9712 33.8807 21.9999C36.9545 25.4342 38.8235 29.9694 38.8235 34.9411V42.2744C38.8235 43.2274 38.051 43.9999 37.098 43.9999H1.72549C0.772528 43.9999 0 43.2274 0 42.2744V34.9411ZM33.8807 21.9999C33.8807 21.9999 33.8807 21.9999 33.8807 21.9999V21.9999Z" fill="#CDD0D8"/>
<path fill-rule="evenodd" clip-rule="evenodd" d="M12.1306 27.0589C9.3589 25.9366 6.90535 24.1926 4.94288 22C8.4973 18.0287 13.6627 15.5294 19.4118 15.5294C25.1609 15.5294 30.3263 18.0287 33.8807 22C33.8807 22 33.8807 22 33.8807 22C36.9545 18.5657 38.8235 14.0305 38.8235 9.05883V1.72549C38.8235 0.772532 38.051 3.24321e-06 37.098 3.24321e-06L1.72549 0C0.772529 -8.33101e-08 7.24411e-07 0.772529 6.41101e-07 1.72549L0 9.05882C-1.28944e-06 17.2047 5.01754 24.1788 12.1306 27.0589Z" fill="#CDD0D8"/>
</svg>
