<svg width="44" height="44" viewBox="0 0 44 44" fill="none" xmlns="http://www.w3.org/2000/svg">
<path fill-rule="evenodd" clip-rule="evenodd" d="M22 34.4667C28.8851 34.4667 34.4667 28.8851 34.4667 22C34.4667 15.1149 28.8851 9.53333 22 9.53333C15.1148 9.53333 9.53333 15.1149 9.53333 22C9.53333 28.8851 15.1148 34.4667 22 34.4667ZM22 44C34.1503 44 44 34.1503 44 22C44 9.84974 34.1503 0 22 0C9.84973 0 0 9.84974 0 22C0 34.1503 9.84973 44 22 44Z" fill="#CDD0D8"/>
<path d="M22.2516 22.4819C24.5427 20.1908 28.2572 20.1908 30.5483 22.4819L41.9563 33.8898C44.2474 36.1809 44.2474 39.8955 41.9563 42.1866C39.6652 44.4776 35.9507 44.4776 33.6596 42.1866L22.2516 30.7786C19.9605 28.4875 19.9605 24.7729 22.2516 22.4819Z" fill="#CDD0D8"/>
<path d="M25.4548 33.9816L32.7002 41.2269C36.1754 39.2887 39.0707 36.4357 41.0603 32.9936L33.8743 25.8076C32.6121 29.747 29.4439 32.8334 25.4548 33.9816Z" fill="white"/>
</svg>
